<?xml version="1.0" encoding="utf-8"?>
<!-- Generator: Adobe Illustrator 16.0.0, SVG Export Plug-In . SVG Version: 6.00 Build 0)  -->
<!DOCTYPE svg PUBLIC "-//W3C//DTD SVG 1.1//EN" "http://www.w3.org/Graphics/SVG/1.1/DTD/svg11.dtd">
<svg version="1.1" id="图层_1" xmlns="http://www.w3.org/2000/svg" xmlns:xlink="http://www.w3.org/1999/xlink" x="0px" y="0px"
	 width="595.28px" height="841.89px" viewBox="0 0 595.28 841.89" enable-background="new 0 0 595.28 841.89" xml:space="preserve">
<g>
	<path fill="#18294F" stroke="#18294F" stroke-width="2.4157" stroke-miterlimit="10" d="M276.202,365.542
		c6.55,2.202,9.826,6.744,9.826,13.624c0,3.331-0.881,6.262-2.642,8.794c-1.734,2.504-4.074,4.273-7.019,5.305
		c-2.945,1.032-7.142,1.548-12.592,1.548h-32.821v-1.321c1.045-0.274,1.748-0.646,2.105-1.115c0.357-0.467,0.537-1.28,0.537-2.436
		v-46.61c0-1.156-0.179-1.975-0.537-2.457c-0.358-0.481-1.06-0.846-2.105-1.094v-1.321h33.605c3.303,0,6.034,0.262,8.195,0.784
		c2.16,0.523,4.066,1.39,5.718,2.601c3.798,2.725,5.697,6.633,5.697,11.725C284.169,358.992,281.513,362.982,276.202,365.542z
		 M240.077,362.775h21.716c3.083,0,5.388-0.096,6.916-0.289c1.527-0.192,2.938-0.55,4.231-1.073
		c1.596-0.661,2.834-1.678,3.716-3.055c0.88-1.376,1.321-2.972,1.321-4.789c0-2.421-0.784-4.486-2.353-6.192
		c-1.266-1.348-2.911-2.277-4.934-2.787s-5.126-0.764-9.31-0.764h-21.303V362.775z M240.077,389.445h22.625
		c3.247,0,5.656-0.103,7.225-0.31s3.027-0.612,4.376-1.218c1.651-0.77,2.938-1.926,3.86-3.468c0.922-1.541,1.383-3.33,1.383-5.367
		c0-2.697-0.812-4.996-2.436-6.895c-1.349-1.569-3.069-2.635-5.161-3.2c-2.092-0.563-5.312-0.846-9.661-0.846h-22.211V389.445z"/>
	<path fill="#18294F" stroke="#18294F" stroke-width="2.4157" stroke-miterlimit="10" d="M322.192,347.583
		c8.229,0,14.863,2.147,19.899,6.44c5.367,4.542,8.051,10.542,8.051,18c0,4.651-1.321,8.917-3.964,12.798
		c-4.981,7.321-12.949,10.981-23.903,10.981c-8.175,0-14.78-2.146-19.816-6.44c-5.367-4.568-8.051-10.458-8.051-17.67
		c0-4.872,1.307-9.248,3.922-13.128c2.779-4.101,6.673-7.087,11.683-8.959C313.454,348.313,317.514,347.638,322.192,347.583z
		 M322.192,352.372c-6.716,0-12.124,2.064-16.225,6.193c-3.578,3.578-5.367,7.955-5.367,13.128c0,5.175,1.789,9.551,5.367,13.129
		c4.101,4.128,9.537,6.192,16.308,6.192s12.206-2.064,16.308-6.192c3.577-3.578,5.367-7.872,5.367-12.881
		c0-5.422-1.79-9.881-5.367-13.376C334.454,354.492,328.99,352.427,322.192,352.372z"/>
	<path fill="#18294F" stroke="#18294F" stroke-width="2.4157" stroke-miterlimit="10" d="M391.836,381.808h-24.263l-3.481,7.762
		c-0.44,0.964-0.66,1.679-0.66,2.147c0,0.936,0.717,1.596,2.151,1.981v1.115h-11.395v-1.115c1.101-0.192,1.961-0.625,2.58-1.3
		c0.619-0.674,1.355-1.961,2.209-3.86l15.316-33.275c0.853-1.844,1.279-3.11,1.279-3.798c0-0.963-0.688-1.555-2.063-1.775v-1.115
		h13.417v1.115c-1.376,0.303-2.064,0.895-2.064,1.775c0,0.523,0.551,1.996,1.651,4.417l14.698,31.996
		c0.99,2.12,1.843,3.579,2.56,4.376c0.715,0.798,1.623,1.28,2.725,1.445v1.115h-12.035v-1.115c1.287-0.275,1.932-0.743,1.932-1.404
		c0-0.33-0.331-1.238-0.991-2.725L391.836,381.808z M389.905,377.308l-10.096-22.671l-10.21,22.671H389.905z"/>
	<path fill="#18294F" stroke="#18294F" stroke-width="2.4157" stroke-miterlimit="10" d="M419.874,373.881v16.266
		c0,1.129,0.179,1.934,0.537,2.415c0.357,0.482,1.06,0.86,2.105,1.135v1.115h-11.188v-1.115c1.073-0.275,1.782-0.653,2.127-1.135
		c0.344-0.481,0.516-1.286,0.516-2.415v-36.909c0-1.156-0.18-1.967-0.537-2.436c-0.357-0.467-1.06-0.839-2.105-1.114v-1.115h27.455
		c3.109,0,5.648,0.221,7.616,0.661c1.968,0.44,3.682,1.184,5.141,2.229c3.192,2.257,4.789,5.56,4.789,9.909
		c0,3.55-1.115,6.351-3.345,8.401c-2.229,2.051-5.505,3.282-9.825,3.695l11.601,18.413c0.413,0.632,0.818,1.06,1.218,1.284
		c0.399,0.224,1.108,0.401,2.127,0.533v1.115H446.66v-1.115c1.073-0.22,1.611-0.564,1.611-1.032c0-0.33-0.317-0.991-0.95-1.981
		l-10.637-16.803H419.874z M419.874,369.381h17.588c2.834,0,4.96-0.103,6.378-0.31c1.418-0.206,2.622-0.584,3.612-1.135
		c2.175-1.211,3.262-3.316,3.262-6.316c0-2.89-1.019-5.064-3.055-6.523c-1.872-1.348-5.051-2.023-9.537-2.023h-18.248V369.381z"/>
	<path fill="#18294F" stroke="#18294F" stroke-width="2.4157" stroke-miterlimit="10" d="M468.056,390.147v-36.909
		c0-1.128-0.172-1.933-0.516-2.415c-0.345-0.481-1.054-0.86-2.127-1.135v-1.115h23.367c6.248,0,10.899,0.729,13.954,2.188
		c3.799,1.844,6.771,4.899,8.918,9.165c1.871,3.688,2.808,7.611,2.808,11.766c0,4.872-1.239,9.345-3.716,13.417
		c-2.146,3.551-4.865,6.056-8.154,7.514c-3.289,1.459-7.892,2.188-13.81,2.188h-23.367v-1.115c1.073-0.275,1.782-0.653,2.127-1.135
		C467.884,392.081,468.056,391.276,468.056,390.147z M473.959,390.313h14.491c5.477,0,9.481-0.743,12.014-2.229
		c2.808-1.624,4.899-4.183,6.275-7.679c1.019-2.643,1.527-5.546,1.527-8.711c0-5.642-1.444-10.156-4.335-13.541
		c-1.596-1.844-3.57-3.151-5.924-3.922c-2.354-0.77-5.539-1.156-9.558-1.156h-14.491V390.313z"/>
</g>
<path fill="none" stroke="#18294F" stroke-width="4.8909" stroke-miterlimit="8" d="M145.714,402.076
	c10.419,8.467,25.741,7.854,35.424-1.84c0.246-0.124,0.246-0.124,0.246-0.124c13.483-29.571,13.483-29.571,13.483-29.571
	c-49.031-12.025-49.031-12.025-49.031-12.025c-49.276,12.148-49.276,12.148-49.276,12.148l0,0l0,0
	c13.729,29.817,13.729,29.817,13.729,29.817c0.246,0.124,0.246,0.124,0.246,0.124C120.218,409.93,135.417,410.542,145.714,402.076
	L145.714,402.076z"/>
<polygon fill-rule="evenodd" clip-rule="evenodd" fill="none" points="112.028,309.607 140.64,309.607 140.64,334.122 
	112.028,334.122 112.028,309.607 112.028,309.607 112.028,309.607 "/>
<polygon fill="none" stroke="#E6E246" stroke-width="4.8909" stroke-miterlimit="8" points="112.028,309.607 140.64,309.607 
	140.64,334.122 112.028,334.122 112.028,309.607 112.028,309.607 112.028,309.607 "/>
<polygon fill-rule="evenodd" clip-rule="evenodd" fill="none" points="151.216,309.607 179.889,309.607 179.889,334.122 
	151.216,334.122 151.216,309.607 151.216,309.607 151.216,309.607 "/>
<polygon fill="none" stroke="#D9291D" stroke-width="4.8909" stroke-miterlimit="8" points="151.216,309.607 179.889,309.607 
	179.889,334.122 151.216,334.122 151.216,309.607 151.216,309.607 151.216,309.607 "/>
<path fill="none" stroke="#18294F" stroke-width="4.8909" stroke-miterlimit="8" d="M113.495,410.787
	c-10.304,10.454-27.11,10.454-37.415,0"/>
<path fill="none" stroke="#18294F" stroke-width="4.8909" stroke-miterlimit="8" d="M147.67,410.787
	c-10.288,10.454-27.066,10.454-37.354,0"/>
<path fill="none" stroke="#18294F" stroke-width="4.8909" stroke-miterlimit="8" d="M181.846,410.787
	c-10.288,10.454-27.066,10.454-37.354,0"/>
<path fill="none" stroke="#18294F" stroke-width="4.8909" stroke-miterlimit="8" d="M216.082,410.787
	c-10.305,10.454-27.111,10.454-37.415,0"/>
<path fill-rule="evenodd" clip-rule="evenodd" fill="#18294F" d="M125.478,381.717c0-1.941,1.587-3.516,3.546-3.516
	c1.958,0,3.546,1.574,3.546,3.516s-1.588,3.516-3.546,3.516C127.065,385.232,125.478,383.658,125.478,381.717L125.478,381.717z"/>
<path fill="none" stroke="#18294F" stroke-width="0.4891" stroke-miterlimit="8" d="M125.478,381.717
	c0-1.941,1.587-3.516,3.546-3.516c1.958,0,3.546,1.574,3.546,3.516s-1.588,3.516-3.546,3.516
	C127.065,385.232,125.478,383.658,125.478,381.717L125.478,381.717z"/>
<path fill-rule="evenodd" clip-rule="evenodd" fill="#18294F" d="M158.125,381.717c0-1.941,1.547-3.516,3.454-3.516
	c1.908,0,3.455,1.574,3.455,3.516s-1.547,3.516-3.455,3.516C159.671,385.232,158.125,383.658,158.125,381.717L158.125,381.717z"/>
<path fill="none" stroke="#18294F" stroke-width="0.4891" stroke-miterlimit="8" d="M158.125,381.717
	c0-1.941,1.547-3.516,3.454-3.516c1.908,0,3.455,1.574,3.455,3.516s-1.547,3.516-3.455,3.516
	C159.671,385.232,158.125,383.658,158.125,381.717L158.125,381.717z"/>
<polygon fill-rule="evenodd" clip-rule="evenodd" fill="none" points="112.15,344.577 140.64,344.577 140.64,350.433 
	112.15,356.926 112.15,344.577 112.15,344.577 112.15,344.577 "/>
<polygon fill="none" stroke="#D9291D" stroke-width="4.8909" stroke-miterlimit="8" points="112.15,344.577 140.64,344.577 
	140.64,350.433 112.15,356.926 112.15,344.577 112.15,344.577 112.15,344.577 "/>
<polygon fill-rule="evenodd" clip-rule="evenodd" fill="none" points="151.216,344.577 179.889,344.577 179.889,356.926 
	151.216,350.433 151.216,344.577 151.216,344.577 151.216,344.577 "/>
<polygon fill="none" stroke="#D9291D" stroke-width="4.8909" stroke-miterlimit="8" points="151.216,344.577 179.889,344.577 
	179.889,356.926 151.216,350.433 151.216,344.577 151.216,344.577 151.216,344.577 "/>
<g>
</g>
<g>
</g>
<g>
</g>
<g>
</g>
<g>
</g>
<g>
</g>
</svg>
